<mxfile host="app.diagrams.net" agent="Mozilla/5.0 (Windows NT 10.0; Win64; x64) AppleWebKit/537.36 (KHTML, like Gecko) Chrome/130.0.0.0 YaBrowser/24.12.0.0 Safari/537.36" version="26.0.11">
  <diagram name="Страница — 1" id="VTpUu14SS6Ktj-Iox-bN">
    <mxGraphModel dx="1386" dy="-386" grid="1" gridSize="10" guides="1" tooltips="1" connect="1" arrows="1" fold="1" page="1" pageScale="1" pageWidth="827" pageHeight="1169" math="0" shadow="0">
      <root>
        <mxCell id="0" />
        <mxCell id="1" parent="0" />
        <mxCell id="-nff1MKq2Y0T8jm6pKHY-1" value="" style="edgeStyle=orthogonalEdgeStyle;rounded=0;orthogonalLoop=1;jettySize=auto;html=1;" parent="1" target="-nff1MKq2Y0T8jm6pKHY-7" edge="1">
          <mxGeometry relative="1" as="geometry">
            <mxPoint x="430.0256410256411" y="2120" as="sourcePoint" />
          </mxGeometry>
        </mxCell>
        <mxCell id="-nff1MKq2Y0T8jm6pKHY-3" value="" style="edgeStyle=orthogonalEdgeStyle;rounded=0;orthogonalLoop=1;jettySize=auto;html=1;" parent="1" source="-nff1MKq2Y0T8jm6pKHY-7" target="-nff1MKq2Y0T8jm6pKHY-10" edge="1">
          <mxGeometry relative="1" as="geometry" />
        </mxCell>
        <mxCell id="-nff1MKq2Y0T8jm6pKHY-4" value="Нет" style="edgeLabel;html=1;align=center;verticalAlign=middle;resizable=0;points=[];" parent="-nff1MKq2Y0T8jm6pKHY-3" vertex="1" connectable="0">
          <mxGeometry x="-0.2571" y="1" relative="1" as="geometry">
            <mxPoint as="offset" />
          </mxGeometry>
        </mxCell>
        <mxCell id="-nff1MKq2Y0T8jm6pKHY-5" style="edgeStyle=orthogonalEdgeStyle;rounded=0;orthogonalLoop=1;jettySize=auto;html=1;entryX=0.5;entryY=0;entryDx=0;entryDy=0;" parent="1" source="-nff1MKq2Y0T8jm6pKHY-7" target="-nff1MKq2Y0T8jm6pKHY-12" edge="1">
          <mxGeometry relative="1" as="geometry" />
        </mxCell>
        <mxCell id="-nff1MKq2Y0T8jm6pKHY-6" value="Да" style="edgeLabel;html=1;align=center;verticalAlign=middle;resizable=0;points=[];" parent="-nff1MKq2Y0T8jm6pKHY-5" vertex="1" connectable="0">
          <mxGeometry x="-0.2619" y="1" relative="1" as="geometry">
            <mxPoint as="offset" />
          </mxGeometry>
        </mxCell>
        <mxCell id="-nff1MKq2Y0T8jm6pKHY-7" value="Расстояние&amp;gt;=25?" style="rhombus;whiteSpace=wrap;html=1;" parent="1" vertex="1">
          <mxGeometry x="364.96" y="2140" width="130" height="130" as="geometry" />
        </mxCell>
        <mxCell id="-nff1MKq2Y0T8jm6pKHY-8" style="edgeStyle=orthogonalEdgeStyle;rounded=0;orthogonalLoop=1;jettySize=auto;html=1;entryX=0.5;entryY=0;entryDx=0;entryDy=0;" parent="1" source="-nff1MKq2Y0T8jm6pKHY-10" target="-nff1MKq2Y0T8jm6pKHY-30" edge="1">
          <mxGeometry relative="1" as="geometry">
            <mxPoint x="870" y="2480" as="targetPoint" />
          </mxGeometry>
        </mxCell>
        <mxCell id="-nff1MKq2Y0T8jm6pKHY-9" value="Нет" style="edgeLabel;html=1;align=center;verticalAlign=middle;resizable=0;points=[];" parent="-nff1MKq2Y0T8jm6pKHY-8" vertex="1" connectable="0">
          <mxGeometry x="-0.3035" y="1" relative="1" as="geometry">
            <mxPoint as="offset" />
          </mxGeometry>
        </mxCell>
        <mxCell id="-nff1MKq2Y0T8jm6pKHY-10" value="Расстояние&amp;lt;=25?" style="rhombus;whiteSpace=wrap;html=1;" parent="1" vertex="1">
          <mxGeometry x="584.9599999999999" y="2280" width="130" height="130" as="geometry" />
        </mxCell>
        <mxCell id="-nff1MKq2Y0T8jm6pKHY-11" style="edgeStyle=orthogonalEdgeStyle;rounded=0;orthogonalLoop=1;jettySize=auto;html=1;entryX=0;entryY=0.5;entryDx=0;entryDy=0;exitX=0;exitY=0.5;exitDx=0;exitDy=0;" parent="1" source="-nff1MKq2Y0T8jm6pKHY-12" target="-nff1MKq2Y0T8jm6pKHY-7" edge="1">
          <mxGeometry relative="1" as="geometry" />
        </mxCell>
        <mxCell id="-nff1MKq2Y0T8jm6pKHY-12" value="Снятие показаний с&amp;nbsp; датчика расстояния" style="rounded=0;whiteSpace=wrap;html=1;" parent="1" vertex="1">
          <mxGeometry x="369.96" y="2330" width="120" height="60" as="geometry" />
        </mxCell>
        <mxCell id="-nff1MKq2Y0T8jm6pKHY-13" style="edgeStyle=orthogonalEdgeStyle;rounded=0;orthogonalLoop=1;jettySize=auto;html=1;entryX=0;entryY=0.5;entryDx=0;entryDy=0;exitX=0;exitY=0.5;exitDx=0;exitDy=0;" parent="1" source="-nff1MKq2Y0T8jm6pKHY-14" target="-nff1MKq2Y0T8jm6pKHY-10" edge="1">
          <mxGeometry relative="1" as="geometry" />
        </mxCell>
        <mxCell id="-nff1MKq2Y0T8jm6pKHY-14" value="Снятие показаний с&amp;nbsp; датчика расстояния" style="rounded=0;whiteSpace=wrap;html=1;" parent="1" vertex="1">
          <mxGeometry x="589.9599999999999" y="2460" width="120" height="60" as="geometry" />
        </mxCell>
        <mxCell id="-nff1MKq2Y0T8jm6pKHY-15" style="edgeStyle=orthogonalEdgeStyle;rounded=0;orthogonalLoop=1;jettySize=auto;html=1;entryX=0.5;entryY=0;entryDx=0;entryDy=0;" parent="1" source="-nff1MKq2Y0T8jm6pKHY-10" target="-nff1MKq2Y0T8jm6pKHY-14" edge="1">
          <mxGeometry relative="1" as="geometry" />
        </mxCell>
        <mxCell id="-nff1MKq2Y0T8jm6pKHY-16" value="Да" style="edgeLabel;html=1;align=center;verticalAlign=middle;resizable=0;points=[];" parent="-nff1MKq2Y0T8jm6pKHY-15" vertex="1" connectable="0">
          <mxGeometry x="-0.2589" y="1" relative="1" as="geometry">
            <mxPoint as="offset" />
          </mxGeometry>
        </mxCell>
        <mxCell id="-nff1MKq2Y0T8jm6pKHY-17" value="" style="endArrow=none;html=1;rounded=0;" parent="1" edge="1">
          <mxGeometry width="50" height="50" relative="1" as="geometry">
            <mxPoint x="459.96" y="2170" as="sourcePoint" />
            <mxPoint x="499.9599999999999" y="2130" as="targetPoint" />
          </mxGeometry>
        </mxCell>
        <mxCell id="-nff1MKq2Y0T8jm6pKHY-18" value="" style="endArrow=none;html=1;rounded=0;" parent="1" edge="1">
          <mxGeometry width="50" height="50" relative="1" as="geometry">
            <mxPoint x="499.9599999999999" y="2130" as="sourcePoint" />
            <mxPoint x="689.9599999999999" y="2130" as="targetPoint" />
          </mxGeometry>
        </mxCell>
        <mxCell id="-nff1MKq2Y0T8jm6pKHY-19" value="" style="endArrow=none;html=1;rounded=0;" parent="1" edge="1">
          <mxGeometry width="50" height="50" relative="1" as="geometry">
            <mxPoint x="689.9599999999999" y="2210" as="sourcePoint" />
            <mxPoint x="689.9599999999999" y="2050" as="targetPoint" />
            <Array as="points">
              <mxPoint x="689.9599999999999" y="2120" />
            </Array>
          </mxGeometry>
        </mxCell>
        <mxCell id="-nff1MKq2Y0T8jm6pKHY-20" value="Ожидание появления человека в зоне видимости датчика(Сигнал о входе человека в створку калитки)" style="text;html=1;align=center;verticalAlign=middle;whiteSpace=wrap;rounded=0;" parent="1" vertex="1">
          <mxGeometry x="709.9599999999999" y="2110" width="60" height="30" as="geometry" />
        </mxCell>
        <mxCell id="-nff1MKq2Y0T8jm6pKHY-21" value="" style="endArrow=none;html=1;rounded=0;" parent="1" edge="1">
          <mxGeometry width="50" height="50" relative="1" as="geometry">
            <mxPoint x="689.9599999999999" y="2050" as="sourcePoint" />
            <mxPoint x="769.9599999999999" y="2050" as="targetPoint" />
          </mxGeometry>
        </mxCell>
        <mxCell id="-nff1MKq2Y0T8jm6pKHY-22" value="" style="endArrow=none;html=1;rounded=0;" parent="1" edge="1">
          <mxGeometry width="50" height="50" relative="1" as="geometry">
            <mxPoint x="689.9599999999999" y="2210" as="sourcePoint" />
            <mxPoint x="769.9599999999999" y="2210" as="targetPoint" />
          </mxGeometry>
        </mxCell>
        <mxCell id="-nff1MKq2Y0T8jm6pKHY-23" value="" style="endArrow=none;html=1;rounded=0;" parent="1" edge="1">
          <mxGeometry width="50" height="50" relative="1" as="geometry">
            <mxPoint x="689.9599999999999" y="2320" as="sourcePoint" />
            <mxPoint x="759.9599999999999" y="2250" as="targetPoint" />
          </mxGeometry>
        </mxCell>
        <mxCell id="-nff1MKq2Y0T8jm6pKHY-24" value="" style="endArrow=none;html=1;rounded=0;" parent="1" edge="1">
          <mxGeometry width="50" height="50" relative="1" as="geometry">
            <mxPoint x="759.9599999999999" y="2250" as="sourcePoint" />
            <mxPoint x="889.9599999999999" y="2250" as="targetPoint" />
          </mxGeometry>
        </mxCell>
        <mxCell id="-nff1MKq2Y0T8jm6pKHY-25" value="" style="endArrow=none;html=1;rounded=0;" parent="1" edge="1">
          <mxGeometry width="50" height="50" relative="1" as="geometry">
            <mxPoint x="889.9599999999999" y="2330" as="sourcePoint" />
            <mxPoint x="889.9599999999999" y="2170" as="targetPoint" />
            <Array as="points">
              <mxPoint x="889.9599999999999" y="2250" />
            </Array>
          </mxGeometry>
        </mxCell>
        <mxCell id="-nff1MKq2Y0T8jm6pKHY-26" value="" style="endArrow=none;html=1;rounded=0;" parent="1" edge="1">
          <mxGeometry width="50" height="50" relative="1" as="geometry">
            <mxPoint x="889.9599999999999" y="2330" as="sourcePoint" />
            <mxPoint x="969.9599999999999" y="2330" as="targetPoint" />
          </mxGeometry>
        </mxCell>
        <mxCell id="-nff1MKq2Y0T8jm6pKHY-27" value="" style="endArrow=none;html=1;rounded=0;" parent="1" edge="1">
          <mxGeometry width="50" height="50" relative="1" as="geometry">
            <mxPoint x="889.9599999999999" y="2170" as="sourcePoint" />
            <mxPoint x="969.9599999999999" y="2170" as="targetPoint" />
          </mxGeometry>
        </mxCell>
        <mxCell id="-nff1MKq2Y0T8jm6pKHY-28" value="Ожидание ухода человека из зоны видимости датчика(Сигнал о выходе человека из створки калитки)" style="text;html=1;align=center;verticalAlign=middle;whiteSpace=wrap;rounded=0;" parent="1" vertex="1">
          <mxGeometry x="909.9599999999999" y="2230" width="60" height="30" as="geometry" />
        </mxCell>
        <mxCell id="-nff1MKq2Y0T8jm6pKHY-29" value="9" style="ellipse;whiteSpace=wrap;html=1;aspect=fixed;" parent="1" vertex="1">
          <mxGeometry x="419.96" y="2100" width="20" height="20" as="geometry" />
        </mxCell>
        <mxCell id="-nff1MKq2Y0T8jm6pKHY-30" value="13" style="ellipse;whiteSpace=wrap;html=1;aspect=fixed;" parent="1" vertex="1">
          <mxGeometry x="860" y="2500" width="20" height="20" as="geometry" />
        </mxCell>
        <mxCell id="-nff1MKq2Y0T8jm6pKHY-41" style="edgeStyle=orthogonalEdgeStyle;rounded=0;orthogonalLoop=1;jettySize=auto;html=1;entryX=0.5;entryY=0;entryDx=0;entryDy=0;" parent="1" source="-nff1MKq2Y0T8jm6pKHY-32" target="-nff1MKq2Y0T8jm6pKHY-35" edge="1">
          <mxGeometry relative="1" as="geometry" />
        </mxCell>
        <mxCell id="-nff1MKq2Y0T8jm6pKHY-32" value="8" style="ellipse;whiteSpace=wrap;html=1;aspect=fixed;" parent="1" vertex="1">
          <mxGeometry x="300" y="2100" width="20" height="20" as="geometry" />
        </mxCell>
        <mxCell id="-nff1MKq2Y0T8jm6pKHY-40" style="edgeStyle=orthogonalEdgeStyle;rounded=0;orthogonalLoop=1;jettySize=auto;html=1;entryX=0.5;entryY=0;entryDx=0;entryDy=0;" parent="1" source="-nff1MKq2Y0T8jm6pKHY-33" target="-nff1MKq2Y0T8jm6pKHY-36" edge="1">
          <mxGeometry relative="1" as="geometry" />
        </mxCell>
        <mxCell id="-nff1MKq2Y0T8jm6pKHY-33" value="7" style="ellipse;whiteSpace=wrap;html=1;aspect=fixed;" parent="1" vertex="1">
          <mxGeometry x="229.99999999999997" y="2100" width="20" height="20" as="geometry" />
        </mxCell>
        <mxCell id="-nff1MKq2Y0T8jm6pKHY-34" value="14" style="ellipse;whiteSpace=wrap;html=1;aspect=fixed;" parent="1" vertex="1">
          <mxGeometry x="1030" y="2500" width="20" height="20" as="geometry" />
        </mxCell>
        <mxCell id="-nff1MKq2Y0T8jm6pKHY-35" value="12" style="ellipse;whiteSpace=wrap;html=1;aspect=fixed;" parent="1" vertex="1">
          <mxGeometry x="300" y="2500" width="20" height="20" as="geometry" />
        </mxCell>
        <mxCell id="-nff1MKq2Y0T8jm6pKHY-36" value="11" style="ellipse;whiteSpace=wrap;html=1;aspect=fixed;" parent="1" vertex="1">
          <mxGeometry x="229.99999999999997" y="2500" width="20" height="20" as="geometry" />
        </mxCell>
        <mxCell id="-nff1MKq2Y0T8jm6pKHY-42" style="edgeStyle=orthogonalEdgeStyle;rounded=0;orthogonalLoop=1;jettySize=auto;html=1;entryX=0.5;entryY=0;entryDx=0;entryDy=0;" parent="1" source="-nff1MKq2Y0T8jm6pKHY-37" target="-nff1MKq2Y0T8jm6pKHY-34" edge="1">
          <mxGeometry relative="1" as="geometry" />
        </mxCell>
        <mxCell id="-nff1MKq2Y0T8jm6pKHY-37" value="10" style="ellipse;whiteSpace=wrap;html=1;aspect=fixed;" parent="1" vertex="1">
          <mxGeometry x="1030" y="2100" width="20" height="20" as="geometry" />
        </mxCell>
      </root>
    </mxGraphModel>
  </diagram>
</mxfile>
